<svg width="1000" height="1000" viewBox="0 0 1000 1000" xmlns="http://www.w3.org/2000/svg">
<path d="M742.072 424.452C752.739 447.118 766.072 464.452 782.072 476.452C798.072 488.452 813.072 495.785 827.072 498.452C841.072 501.118 855.739 508.785 871.072 521.452C886.406 534.118 898.072 552.452 906.072 576.452C920.739 617.785 896.072 671.452 832.072 737.452C768.072 803.452 684.072 855.785 580.072 894.452C470.739 933.118 371.739 948.118 283.072 939.452C194.406 930.785 142.739 905.785 128.072 864.452C114.739 828.452 118.739 791.452 140.072 753.452C161.406 715.452 167.406 678.452 158.072 642.452C120.739 514.452 105.072 414.452 111.072 342.452C117.072 270.452 154.739 206.452 224.072 150.452C241.406 135.785 251.072 118.785 253.072 99.4517C255.072 80.1184 264.739 67.1184 282.072 60.4517C298.072 55.1184 313.406 59.1184 328.072 72.4517C342.739 85.7851 361.406 91.7851 384.072 90.4517C472.072 89.1184 538.072 111.118 582.072 156.452C626.072 201.785 679.406 291.118 742.072 424.452ZM556.072 828.452C614.739 807.118 667.739 778.785 715.072 743.452C762.406 708.118 795.739 677.785 815.072 652.452C834.406 627.118 842.739 610.452 840.072 602.452C834.739 587.785 818.406 576.785 791.072 569.452C763.739 562.118 722.406 561.785 667.072 568.452C611.739 575.118 549.406 591.118 480.072 616.452C412.072 641.785 354.406 670.785 307.072 703.452C259.739 736.118 228.406 764.118 213.072 787.452C197.739 810.785 192.072 828.452 196.072 840.452C198.739 848.452 215.406 855.785 246.072 862.452C276.739 869.118 321.406 870.452 380.072 866.452C438.739 862.452 497.406 849.785 556.072 828.452ZM494.072 654.452C499.406 653.118 506.406 650.785 515.072 647.452C523.739 644.118 529.406 641.785 532.072 640.452L534.072 642.452C543.406 669.118 537.739 696.785 517.072 725.452C496.406 754.118 466.739 775.118 428.072 788.452C364.072 812.452 313.406 807.785 276.072 774.452C328.072 729.118 400.739 689.118 494.072 654.452Z"/>
</svg>
