<svg width="1000" height="1000" viewBox="0 0 1000 1000" xmlns="http://www.w3.org/2000/svg">
<path d="M220.541 263.959C248.541 235.959 298.207 237.626 369.541 268.959C440.874 300.293 513.207 352.626 586.541 425.959C659.874 499.293 712.207 571.626 743.541 642.959C774.874 714.293 776.541 763.959 748.541 791.959C729.874 810.626 699.208 832.959 656.541 858.959C613.874 884.959 561.874 910.959 500.541 936.959C439.207 962.959 374.541 972.626 306.541 965.959C238.541 959.293 179.874 931.293 130.541 881.959C81.2075 832.626 53.2075 773.959 46.5408 705.959C39.8741 637.959 49.5408 573.293 75.5408 511.959C101.541 450.626 127.541 398.626 153.541 355.959C179.541 313.292 201.874 282.626 220.541 263.959ZM684.541 743.959C689.874 737.293 688.874 720.959 681.541 694.959C674.207 668.959 657.874 635.293 632.541 593.959C607.207 552.626 575.207 513.293 536.541 475.959C499.207 437.293 459.874 405.293 418.541 379.959C377.207 354.626 343.541 338.293 317.541 330.959C291.541 323.626 275.207 322.626 268.541 327.959C263.207 334.626 264.207 350.959 271.541 376.959C278.874 402.959 295.207 436.626 320.541 477.959C345.874 519.293 377.207 559.293 414.541 597.959C453.207 635.293 493.207 666.626 534.541 691.959C575.874 717.293 609.541 733.626 635.541 740.959C661.541 748.293 677.874 749.293 684.541 743.959ZM690.541 349.959C678.541 349.959 667.207 344.626 656.541 333.959C645.874 324.626 640.541 312.959 640.541 298.959C640.541 284.959 645.874 273.293 656.541 263.959L750.541 167.959C774.541 146.626 798.541 146.626 822.541 167.959C843.874 191.959 843.874 215.959 822.541 239.959L726.541 333.959C715.874 344.626 703.874 349.959 690.541 349.959ZM510.541 225.959C498.541 219.293 490.874 209.293 487.541 195.959C484.207 182.626 485.874 169.959 492.541 157.959L546.541 61.9592C563.874 32.6258 586.541 25.9592 614.541 41.9592C626.541 48.6258 634.207 58.6258 637.541 71.9592C640.874 85.2925 639.207 97.9592 632.541 109.959L578.541 205.959C569.207 223.293 555.207 231.959 536.541 231.959C527.207 231.959 518.541 229.959 510.541 225.959ZM948.541 375.959C955.207 387.959 956.541 400.626 952.541 413.959C948.541 427.293 940.541 437.293 928.541 443.959L832.541 497.959C821.874 503.293 813.874 505.959 808.541 505.959C789.874 505.959 775.207 497.293 764.541 479.959C757.874 467.959 756.541 455.293 760.541 441.959C764.541 428.626 772.541 418.626 784.541 411.959L880.541 357.959C892.541 351.293 905.207 349.626 918.541 352.959C931.874 356.293 941.874 363.959 948.541 375.959Z"/>
</svg>
