<svg width="1000" height="1000" viewBox="0 0 1000 1000" xmlns="http://www.w3.org/2000/svg">
<path d="M499.068 100C606.974 100 695.657 115.194 765.114 145.581C834.571 175.969 866.819 208.527 861.858 243.256C858.137 266.822 843.254 362.015 817.207 528.837C791.161 695.659 777.517 782.791 776.277 790.233C775.036 801.395 763.564 815.039 741.858 831.163C720.153 847.287 686.974 862.791 642.323 877.674C597.672 892.558 549.92 900 499.068 900C448.215 900 400.773 892.558 356.742 877.674C312.711 862.791 279.843 847.287 258.137 831.163C236.432 815.039 224.959 801.395 223.719 790.233C223.719 788.992 222.478 779.69 219.998 762.326C270.85 766.047 321.393 755.194 371.626 729.767C421.858 704.341 464.959 668.062 500.928 620.93C518.292 620.93 533.176 614.729 545.579 602.326C557.982 589.922 564.184 574.419 564.184 555.814C564.184 538.45 557.982 523.256 545.579 510.233C533.176 497.209 517.672 490.698 499.068 490.698C481.703 490.698 466.509 497.209 453.486 510.233C440.463 523.256 433.951 538.45 433.951 555.814C433.951 568.217 437.052 579.38 443.254 589.302C413.486 625.271 377.827 652.868 336.277 672.093C294.726 691.318 254.106 699.69 214.416 697.209C151.161 691.008 102.478 673.333 68.3699 644.186C34.2613 615.039 15.9668 581.24 13.4861 542.791C8.52491 467.132 56.897 410.078 158.602 371.628C147.44 313.333 140.618 270.543 138.137 243.256C133.176 208.527 165.424 175.969 234.881 145.581C304.339 115.194 392.401 100 499.068 100ZM78.6024 537.209C81.083 557.054 92.5559 575.349 113.021 592.093C133.486 608.837 161.703 620.93 197.672 628.372L167.905 438.605C105.889 465.891 76.1218 498.76 78.6024 537.209ZM499.068 340C549.92 340 598.602 334.419 645.114 323.256C691.626 312.093 726.664 300 750.23 286.977C773.796 273.953 785.579 263.101 785.579 254.419C785.579 245.736 773.796 234.884 750.23 221.86C726.664 208.837 691.936 196.744 646.044 185.581C600.153 174.419 551.161 168.837 499.068 168.837C448.215 168.837 399.843 174.419 353.951 185.581C308.06 196.744 273.331 208.837 249.765 221.86C226.199 234.884 214.416 245.736 214.416 254.419C214.416 263.101 226.199 273.953 249.765 286.977C273.331 300 308.06 312.093 353.951 323.256C399.843 334.419 448.215 340 499.068 340Z"/>
</svg>
