<svg width="1000" height="1000" viewBox="0 0 1000 1000" xmlns="http://www.w3.org/2000/svg">
<path d="M276 710L392 594V886L116 870L204 784C126.667 702.667 88.6666 606 90 494C91.3333 382 131.333 286 210 206C276.667 139.333 356.667 100.667 450 90L454 192C387.333 202.667 330 232 282 280C223.333 338.667 193.333 409.667 192 493C190.667 576.333 218.667 648.667 276 710ZM608 112L884 128L796 214C873.333 295.333 911.333 392 910 504C908.667 616 868.667 712 790 792C726 857.333 646 896.667 550 910L548 806C613.333 795.333 670 766 718 718C776.667 659.333 806.667 588.333 808 505C809.333 421.667 781.333 349.333 724 288L610 404L608 112Z"/>
</svg>
