<svg width="1000" height="1000" viewBox="0 0 1000 1000" xmlns="http://www.w3.org/2000/svg">
<path d="M500 25C631.944 25 744.097 71.5104 836.458 164.531C928.819 257.552 975 369.375 975 500C975 631.944 928.819 744.097 836.458 836.458C744.097 928.819 631.944 975 500 975C369.375 975 257.552 928.819 164.531 836.458C71.5104 744.097 25 631.944 25 500C25 369.375 71.5104 257.552 164.531 164.531C257.552 71.5104 369.375 25 500 25ZM905.729 500C905.729 412.917 880 334.08 828.542 263.49C777.083 192.899 710.451 143.75 628.646 116.042C616.771 131.875 611.493 142.431 612.812 147.708C615.451 172.778 621.389 189.601 630.625 198.177C639.861 206.753 649.757 209.063 660.312 205.104L691.979 193.229C691.979 193.229 698.576 192.569 711.771 191.25C726.285 207.083 726.285 222.587 711.771 237.76C697.257 252.934 682.413 271.406 667.24 293.177C652.066 314.948 651.736 340.347 666.25 369.375C688.681 411.597 720.347 432.708 761.25 432.708C779.722 434.028 793.906 445.903 803.802 468.333C813.698 490.764 819.306 512.535 820.625 533.646C827.222 586.424 822.604 632.604 806.771 672.188C792.257 701.215 796.875 726.285 820.625 747.396C877.361 673.507 905.729 591.042 905.729 500ZM444.583 100.208C370.694 109.444 305.052 137.153 247.656 183.333C190.26 229.514 148.368 286.91 121.979 355.521C125.937 355.521 133.194 356.181 143.75 357.5C154.306 358.819 163.542 359.809 171.458 360.469C179.375 361.128 187.951 362.448 197.187 364.427C206.424 366.406 214.34 369.045 220.937 372.344C227.535 375.642 231.493 379.931 232.812 385.208C235.451 393.125 230.833 407.969 218.958 429.74C207.083 451.51 201.146 471.632 201.146 490.104C201.146 509.896 213.681 528.368 238.75 545.521C263.819 562.674 276.354 577.847 276.354 591.042C276.354 609.514 278.993 631.944 284.271 658.333C289.549 684.722 292.187 699.236 292.187 701.875C292.187 709.792 304.062 727.604 327.812 755.313C351.562 783.021 368.715 796.875 379.271 796.875C385.868 796.875 389.497 789.618 390.156 775.104C390.816 760.59 390.156 742.778 388.177 721.667C386.198 700.556 385.208 687.361 385.208 682.083C385.208 660.972 389.826 636.563 399.062 608.854C406.979 581.146 426.441 558.056 457.448 539.583C488.455 521.111 506.597 505.938 511.875 494.063C522.431 471.632 525.399 451.51 520.781 433.698C516.163 415.885 510.556 401.701 503.958 391.146C497.361 380.59 486.146 371.354 470.312 363.438C454.479 355.521 440.955 349.913 429.74 346.615C418.524 343.316 406.319 340.347 393.125 337.708C379.931 335.069 372.674 333.75 371.354 333.75C360.799 329.792 346.944 327.483 329.792 326.823C312.639 326.163 300.764 327.153 294.167 329.792C287.569 332.431 278.663 328.802 267.448 318.906C256.233 309.01 250.625 299.444 250.625 290.208C250.625 283.611 255.573 274.705 265.469 263.49C275.365 252.274 286.91 240.069 300.104 226.875C313.299 213.681 322.535 203.785 327.812 197.188C333.09 187.951 338.698 181.024 344.635 176.406C350.573 171.788 357.83 166.51 366.406 160.573C374.983 154.635 383.889 147.708 393.125 139.792C395.764 137.153 404.01 131.545 417.865 122.969C431.719 114.392 440.625 106.806 444.583 100.208ZM373.333 885.938C416.875 899.132 459.097 905.729 500 905.729C584.444 905.729 658.993 883.299 723.646 838.438C706.493 809.41 667.569 798.194 606.875 804.792C591.042 806.111 569.601 811.719 542.552 821.615C515.503 831.51 500 837.118 496.042 838.438C447.222 848.993 422.153 854.271 420.833 854.271C412.917 855.59 404.34 860.208 395.104 868.125C385.868 876.042 378.611 881.979 373.333 885.938Z"/>
</svg>
