<svg width="1000" height="1000" viewBox="0 0 1000 1000" xmlns="http://www.w3.org/2000/svg">
<path d="M861.772 351.012C900.439 443.012 922.772 529.012 928.772 609.012C934.772 689.012 921.772 735.678 889.772 749.012C871.105 757.012 850.772 756.012 828.772 746.012C806.772 736.012 785.105 722.678 763.772 706.012C742.439 689.345 709.439 675.678 664.772 665.012C620.105 654.345 570.439 651.678 515.772 657.012C497.105 659.678 483.105 666.012 473.772 676.012C464.439 686.012 462.439 698.345 467.772 713.012C482.439 750.345 497.772 786.345 513.772 821.012C516.439 827.678 524.439 835.012 537.772 843.012C551.105 851.012 559.105 857.678 561.772 863.012C571.105 885.678 563.772 901.012 539.772 909.012C506.439 923.678 472.439 937.012 437.772 949.012C417.772 955.678 399.772 941.678 383.772 907.012C362.439 856.345 343.105 812.345 325.772 775.012C321.772 767.012 310.439 761.345 291.772 758.012C273.105 754.678 257.772 744.345 245.772 727.012C225.772 733.678 213.105 738.345 207.772 741.012C185.105 749.012 160.439 745.012 133.772 729.012C107.105 713.012 89.1055 693.012 79.7722 669.012C68.4388 647.678 66.7722 621.345 74.7722 590.012C82.7722 558.678 97.1055 538.345 117.772 529.012C201.772 494.345 272.772 458.345 330.772 421.012C388.772 383.678 430.105 349.345 454.772 318.012C479.439 286.678 499.105 256.012 513.772 226.012C528.439 196.012 536.772 170.012 538.772 148.012C540.772 126.012 545.772 106.345 553.772 89.0117C561.772 71.6784 573.772 59.6784 589.772 53.0117C621.772 39.6784 665.105 63.0117 719.772 123.012C774.439 183.012 821.772 259.012 861.772 351.012ZM833.772 651.012C839.105 648.345 842.439 635.678 843.772 613.012C845.105 590.345 841.439 557.678 832.772 515.012C824.105 472.345 810.439 429.678 791.772 387.012C773.105 343.012 750.772 302.012 724.772 264.012C698.772 226.012 676.439 198.012 657.772 180.012C639.105 162.012 627.105 154.345 621.772 157.012C616.439 159.678 613.105 173.678 611.772 199.012C610.439 224.345 613.772 259.345 621.772 304.012C629.772 348.678 643.105 393.012 661.772 437.012C680.439 481.012 703.105 520.678 729.772 556.012C756.439 591.345 779.105 616.678 797.772 632.012C816.439 647.345 828.439 653.678 833.772 651.012Z"/>
</svg>
