<svg width="1000" height="1000" viewBox="0 0 1000 1000" xmlns="http://www.w3.org/2000/svg">
<path d="M877.667 772C897.667 794.667 899.667 815.333 883.667 834L837.667 880C813.667 901.333 791 901.333 769.667 880L579.667 690C530.333 718 478.333 732 423.667 732C338.333 732 264 700.333 200.667 637C137.333 573.667 105.667 499.333 105.667 414C105.667 328.667 135.667 255.667 195.667 195C255.667 134.333 328.333 104 413.667 104C499 104 573.667 135.667 637.667 199C701.667 262.333 733.667 336.667 733.667 422C733.667 480.667 718.333 534.667 687.667 584L877.667 772ZM199.667 414C199.667 472.667 222.333 524.667 267.667 570C313 615.333 365 638 423.667 638C482.333 638 532.667 617 574.667 575C616.667 533 637.667 482 637.667 422C637.667 363.333 615 311.667 569.667 267C524.333 222.333 472.333 200 413.667 200C355 200 304.667 221 262.667 263C220.667 305 199.667 355.333 199.667 414Z"/>
</svg>
