<svg width="1002" height="1000" viewBox="0 0 1002 1000" xmlns="http://www.w3.org/2000/svg">
<path d="M499.5 20C632.833 20 746.167 67 839.5 161C932.833 255 979.5 368 979.5 500C979.5 633.333 932.833 746.667 839.5 840C746.167 933.333 632.833 980 499.5 980C367.5 980 254.5 933.333 160.5 840C66.5 746.667 19.5 633.333 19.5 500C19.5 368 66.5 255 160.5 161C254.5 67 367.5 20 499.5 20ZM909.5 500C909.5 412 883.5 332.333 831.5 261C779.5 189.667 712.167 140 629.5 112C617.5 128 612.167 138.667 613.5 144C616.167 169.333 622.167 186.333 631.5 195C640.833 203.667 650.833 206 661.5 202L693.5 190C693.5 190 700.167 189.333 713.5 188C728.167 204 728.167 219.667 713.5 235C698.833 250.333 683.833 269 668.5 291C653.167 313 652.833 338.667 667.5 368C690.167 410.667 722.167 432 763.5 432C782.167 433.333 796.5 445.333 806.5 468C816.5 490.667 822.167 512.667 823.5 534C830.167 587.333 825.5 634 809.5 674C794.833 703.333 799.5 728.667 823.5 750C880.833 675.333 909.5 592 909.5 500ZM443.5 96C368.833 105.333 302.5 133.333 244.5 180C186.5 226.667 144.167 284.667 117.5 354C121.5 354 128.833 354.667 139.5 356C150.167 357.333 159.5 358.333 167.5 359C175.5 359.667 184.167 361 193.5 363C202.833 365 210.833 367.667 217.5 371C224.167 374.333 228.167 378.667 229.5 384C232.167 392 227.5 407 215.5 429C203.5 451 197.5 471.333 197.5 490C197.5 510 210.167 528.667 235.5 546C260.833 563.333 273.5 578.667 273.5 592C273.5 610.667 276.167 633.333 281.5 660C286.833 686.667 289.5 701.333 289.5 704C289.5 712 301.5 730 325.5 758C349.5 786 366.833 800 377.5 800C384.167 800 387.833 792.667 388.5 778C389.167 763.333 388.5 745.333 386.5 724C384.5 702.667 383.5 689.333 383.5 684C383.5 662.667 388.167 638 397.5 610C405.5 582 425.167 558.667 456.5 540C487.833 521.333 506.167 506 511.5 494C522.167 471.333 525.167 451 520.5 433C515.833 415 510.167 400.667 503.5 390C496.833 379.333 485.5 370 469.5 362C453.5 354 439.833 348.333 428.5 345C417.167 341.667 404.833 338.667 391.5 336C378.167 333.333 370.833 332 369.5 332C358.833 328 344.833 325.667 327.5 325C310.167 324.333 298.167 325.333 291.5 328C284.833 330.667 275.833 327 264.5 317C253.167 307 247.5 297.333 247.5 288C247.5 281.333 252.5 272.333 262.5 261C272.5 249.667 284.167 237.333 297.5 224C310.833 210.667 320.167 200.667 325.5 194C330.833 184.667 336.5 177.667 342.5 173C348.5 168.333 355.833 163 364.5 157C373.167 151 382.167 144 391.5 136C394.167 133.333 402.5 127.667 416.5 119C430.5 110.333 439.5 102.667 443.5 96ZM371.5 890C415.5 903.333 458.167 910 499.5 910C584.833 910 660.167 887.333 725.5 842C708.167 812.667 668.833 801.333 607.5 808C591.5 809.333 569.833 815 542.5 825C515.167 835 499.5 840.667 495.5 842C446.167 852.667 420.833 858 419.5 858C411.5 859.333 402.833 864 393.5 872C384.167 880 376.833 886 371.5 890Z"/>
</svg>
