<svg width="1000" height="1000" viewBox="0 0 1000 1000" fill="none" xmlns="http://www.w3.org/2000/svg">
<path d="M868.862 257.529C889.287 238.996 899.5 216.86 899.5 191.12C899.5 165.38 889.287 143.243 868.862 124.71C848.436 108.237 824.039 100 795.67 100C767.301 100 742.904 108.237 722.479 124.71L497.798 359.459L273.117 124.71C252.691 108.237 228.294 100 199.926 100C171.557 100 147.16 108.237 126.734 124.71C108.578 143.243 99.5 165.38 99.5 191.12C99.5 216.86 108.578 238.996 126.734 257.529L361.628 498.456L126.734 742.471C108.578 761.004 99.5 783.14 99.5 808.88C99.5 834.62 108.578 856.757 126.734 875.29C147.16 891.763 171.557 900 199.926 900C228.294 900 252.691 891.763 273.117 875.29L497.798 640.541L722.479 875.29C742.904 891.763 767.301 900 795.67 900C824.039 900 848.436 891.763 868.862 875.29C889.287 856.757 899.5 834.62 899.5 808.88C899.5 783.14 889.287 761.004 868.862 742.471L633.968 498.456L868.862 257.529Z" fill="black"/>
</svg>
