<svg width="1002" height="1000" viewBox="0 0 1002 1000" xmlns="http://www.w3.org/2000/svg">
<path d="M394.5 734C403.833 724.667 415.167 720 428.5 720C441.833 720 453.833 724.667 464.5 734C485.833 756.667 485.833 780 464.5 804L422.5 844C385.167 881.333 341.167 900 290.5 900C238.5 900 193.833 881.333 156.5 844C119.167 806.667 100.5 762.667 100.5 712C100.5 660 119.167 615.333 156.5 578L304.5 430C351.167 384.667 399.167 359 448.5 353C497.833 347 540.5 361.333 576.5 396C587.167 406.667 592.5 418.667 592.5 432C592.5 445.333 587.167 457.333 576.5 468C552.5 489.333 529.167 489.333 506.5 468C473.167 436 429.167 447.333 374.5 502L226.5 648C209.167 665.333 200.5 686.667 200.5 712C200.5 737.333 209.167 758 226.5 774C243.833 791.333 264.833 800 289.5 800C314.167 800 335.167 791.333 352.5 774L394.5 734ZM844.5 160C881.833 197.333 900.5 241.333 900.5 292C900.5 344 881.833 388.667 844.5 426L686.5 584C637.167 632 587.167 656 536.5 656C495.167 656 457.833 639.333 424.5 606C415.167 596.667 410.5 585.333 410.5 572C410.5 558.667 415.167 546.667 424.5 536C433.833 526.667 445.5 522 459.5 522C473.5 522 485.167 526.667 494.5 536C527.833 568 568.5 560 616.5 512L774.5 356C793.167 337.333 802.5 316 802.5 292C802.5 266.667 793.167 246 774.5 230C758.5 212.667 739.833 202.333 718.5 199C697.167 195.667 677.167 202.667 658.5 220L608.5 270C597.833 279.333 585.833 284 572.5 284C559.167 284 547.833 279.333 538.5 270C515.833 247.333 515.833 224 538.5 200L588.5 150C624.5 114 666.833 97 715.5 99C764.167 101 807.167 121.333 844.5 160Z"/>
</svg>
