<svg width="1000" height="1000" viewBox="0 0 1000 1000" xmlns="http://www.w3.org/2000/svg">
<path d="M939.554 643.774C950.83 650.038 959.288 660.062 964.926 673.844C970.564 687.626 971.504 700.155 967.745 711.432L941.433 856.145C938.927 868.674 932.036 879.011 920.76 887.155C909.484 895.299 896.954 899.371 883.172 899.371H116.38C102.598 899.371 90.0683 895.299 78.7919 887.155C67.5156 879.011 60.6245 868.674 58.1186 856.145L31.8071 711.432C25.5425 681.362 35.5659 658.809 61.8774 643.774L210.349 542.286H302.44L142.691 664.447H309.957C314.969 664.447 318.728 666.953 321.234 671.965L358.821 775.331H640.73L678.318 671.965C683.33 666.953 687.089 664.447 689.595 664.447H856.861L697.112 542.286H789.202L939.554 643.774ZM744.097 341.191L499.776 570.477L255.455 341.191H411.444V100.629H589.987V341.191H744.097Z"/>
</svg>
