<svg width="1000" height="1000" viewBox="0 0 1000 1000" xmlns="http://www.w3.org/2000/svg">
<path d="M394 734C403.333 724.667 414.667 720 428 720C441.333 720 453.333 724.667 464 734C485.333 756.667 485.333 780 464 804L422 844C384.667 881.333 340.667 900 290 900C238 900 193.333 881.333 156 844C118.667 806.667 100 762.667 100 712C100 660 118.667 615.333 156 578L304 430C350.667 384.667 398.667 359 448 353C497.333 347 540 361.333 576 396C586.667 406.667 592 418.667 592 432C592 445.333 586.667 457.333 576 468C552 489.333 528.667 489.333 506 468C472.667 436 428.667 447.333 374 502L226 648C208.667 665.333 200 686.667 200 712C200 737.333 208.667 758 226 774C243.333 791.333 264.333 800 289 800C313.667 800 334.667 791.333 352 774L394 734ZM844 160C881.333 197.333 900 241.333 900 292C900 344 881.333 388.667 844 426L686 584C636.667 632 586.667 656 536 656C494.667 656 457.333 639.333 424 606C414.667 596.667 410 585.333 410 572C410 558.667 414.667 546.667 424 536C433.333 526.667 445 522 459 522C473 522 484.667 526.667 494 536C527.333 568 568 560 616 512L774 356C792.667 337.333 802 316 802 292C802 266.667 792.667 246 774 230C758 212.667 739.333 202.333 718 199C696.667 195.667 676.667 202.667 658 220L608 270C597.333 279.333 585.333 284 572 284C558.667 284 547.333 279.333 538 270C515.333 247.333 515.333 224 538 200L588 150C624 114 666.333 97 715 99C763.667 101 806.667 121.333 844 160Z"/>
</svg>
