<svg width="1000" height="1000" viewBox="0 0 1000 1000" xmlns="http://www.w3.org/2000/svg">
<path d="M856.894 239.319C902.935 270.013 935.228 305.183 953.772 344.829C972.316 384.475 978.711 417.727 972.955 444.584C967.2 471.441 956.01 486.788 939.384 490.625C929.153 493.183 911.887 489.985 887.588 481.033C863.289 472.081 837.711 468.883 810.854 471.441C783.996 473.999 758.418 488.706 734.119 515.564C714.935 544.979 708.221 568.958 713.976 587.502C719.731 606.046 730.602 626.829 746.588 649.849C762.575 672.87 769.928 688.856 768.65 697.808C767.371 714.434 755.86 734.577 734.119 758.237C712.378 781.897 672.092 805.556 613.262 829.216C554.432 852.876 485.371 864.706 406.079 864.706C287.14 864.706 194.099 832.414 126.956 767.829C59.8136 703.244 29.4395 624.91 35.8341 532.829C40.9497 457.373 74.2014 382.237 135.589 307.421C196.977 232.605 266.038 184.326 342.772 162.584C528.214 108.87 699.588 134.448 856.894 239.319ZM551.874 686.298C571.058 686.298 587.684 679.264 601.752 665.196C615.82 651.128 622.854 633.863 622.854 613.4C622.854 592.938 615.82 575.992 601.752 562.564C587.684 549.135 571.058 542.421 551.874 542.421C531.412 542.421 514.146 549.135 500.078 562.564C486.01 575.992 478.976 592.938 478.976 613.4C478.976 633.863 486.01 651.128 500.078 665.196C514.146 679.264 531.412 686.298 551.874 686.298Z"/>
</svg>
