<svg width="900" height="1000" viewBox="0 0 900 1000" xmlns="http://www.w3.org/2000/svg">
<path d="M496.425 646.258V577.425C496.425 574.048 495.278 571.213 492.983 568.918C490.689 566.624 487.983 565.477 484.866 565.477H415.254C412.137 565.477 409.432 566.624 407.137 568.918C404.843 571.213 403.696 574.048 403.696 577.425V646.258C403.696 649.634 404.843 652.47 407.137 654.764C409.432 657.059 412.137 658.206 415.254 658.206H484.866C487.983 658.206 490.689 657.059 492.983 654.764C495.278 652.47 496.425 649.634 496.425 646.258ZM495.711 510.735L502.269 344.433C502.269 341.533 501.057 339.238 498.633 337.55C495.472 334.866 492.572 333.524 489.931 333.524H410.189C407.549 333.524 404.648 334.866 401.488 337.55C399.064 339.238 397.851 341.771 397.851 345.148L404.02 510.735C404.02 513.16 405.233 515.151 407.657 516.71C410.081 518.268 412.982 519.047 416.358 519.047H483.373C486.793 519.047 489.65 518.268 491.944 516.71C494.239 515.151 495.494 513.16 495.711 510.735ZM490.646 172.287L768.963 682.492C777.405 697.731 777.167 712.947 768.249 728.142C764.136 735.156 758.508 740.718 751.365 744.831C744.222 748.944 736.56 751 728.378 751H171.743C163.561 751 155.898 748.944 148.755 744.831C141.612 740.718 135.985 735.156 131.872 728.142C122.954 712.947 122.716 697.731 131.158 682.492L409.475 172.287C413.588 164.798 419.259 158.867 426.488 154.494C433.718 150.122 441.575 147.957 450.06 148.001C458.545 148.044 466.403 150.208 473.632 154.494C480.862 158.78 486.533 164.711 490.646 172.287Z"/>
</svg>
