<svg width="1000" height="1000" viewBox="0 0 1000 1000" xmlns="http://www.w3.org/2000/svg">
<path d="M964.5 400C964.5 408 959.5 417 949.5 427L747.5 624L795.5 903C795.5 905.667 795.5 909.667 795.5 915C795.5 922.333 793.5 928.667 789.5 934C785.5 939.333 779.833 942.333 772.5 943C765.833 943 758.5 940.667 750.5 936L499.5 804L249.5 936C241.5 940.667 233.833 943 226.5 943C219.167 943 213.5 940 209.5 934C205.5 928 203.5 921.667 203.5 915C203.5 912.333 203.833 908.333 204.5 903L252.5 624L49.5 427C40.1667 417 35.5 408 35.5 400C35.5 386 45.8333 377.333 66.5 374L346.5 334L472.5 80C479.833 64.6667 488.833 57 499.5 57C510.167 57 519.5 64.6667 527.5 80L652.5 334L932.5 374C953.833 377.333 964.5 386 964.5 400Z"/>
</svg>
