<svg width="1000" height="1000" viewBox="0 0 1000 1000" xmlns="http://www.w3.org/2000/svg">
<path d="M863.283 586C880.616 595.333 891.616 609.667 896.283 629C900.949 648.333 898.616 666.667 889.283 684L854.283 745C844.283 762.333 829.616 773.333 810.283 778C790.949 782.667 772.949 780.333 756.283 771L607.283 686V857C607.283 876.333 600.283 893 586.283 907C572.283 921 555.616 928.333 536.283 929H465.283C445.949 929 428.949 921.667 414.283 907C399.616 892.333 392.616 875.667 393.283 857V686L245.283 771C227.949 781 209.616 783.333 190.283 778C170.949 772.667 156.616 761.667 147.283 745L111.283 684C101.949 666.667 99.6159 648.333 104.283 629C108.949 609.667 120.283 595.333 138.283 586L286.283 500L138.283 414C120.949 404.667 109.616 390.333 104.283 371C98.9493 351.667 101.283 333.333 111.283 316L147.283 255C157.283 237.667 171.616 226.667 190.283 222C208.949 217.333 227.283 219.667 245.283 229L393.283 314V143C393.283 123.667 400.283 107 414.283 93C428.283 79 445.283 71.6667 465.283 71H536.283C555.616 71 572.283 78.3333 586.283 93C600.283 107.667 607.283 124.333 607.283 143V314L756.283 229C773.616 219 791.616 216.667 810.283 222C828.949 227.333 843.616 238.333 854.283 255L889.283 316C899.283 333.333 901.616 351.667 896.283 371C890.949 390.333 879.949 404.667 863.283 414L715.283 500L863.283 586Z"/>
</svg>
