<svg xmlns="http://www.w3.org/2000/svg" width="900" height="1000" fill="none"><path fill="#000" d="M450.311 185.4q99.11 0 182.835 48.875t132.601 132.601 48.79 182.835-48.79 182.836-132.601 132.6q-83.895 48.876-182.835 48.875T267.39 865.147t-132.515-132.6Q86.339 648.822 86 549.711q-.34-99.11 48.875-182.835T267.39 234.275 450.311 185.4m60.69 591.517v-90.1q0-6.63-4.25-11.135t-10.455-4.505h-91.035q-6.205 0-10.965 4.675t-4.76 10.965v90.1q0 6.205 4.76 10.88t10.965 4.76h91.035q6.205 0 10.455-4.505t4.25-11.135m-.935-163.201 8.5-294.526q0-5.695-4.76-8.5-4.675-3.825-11.305-3.825h-104.38q-6.63 0-11.39 3.825-4.76 2.805-4.76 8.5l8.075 294.526q0 4.76 4.76 8.33t11.39 3.57h87.72q6.63 0 11.135-3.57t5.015-8.33"/></svg>