<svg width="1000" height="1000" viewBox="0 0 1000 1000" xmlns="http://www.w3.org/2000/svg">
<path d="M945.91 269.38C960.427 289.835 963.726 313.59 955.808 340.644L803.381 840.486C796.782 864.241 782.925 884.036 761.81 899.873C740.695 915.71 717.93 923.958 693.515 924.618H183.775C155.402 924.618 128.018 914.72 101.623 894.924C75.229 875.128 57.083 850.714 47.1851 821.68C37.9471 797.265 37.6172 773.84 46.1953 751.405C46.1953 750.086 46.5253 745.137 47.1851 736.558C47.845 727.98 48.8347 721.382 50.1545 716.763C50.1545 713.464 49.4946 709.504 48.1749 704.885C46.8552 700.266 46.1953 696.637 46.1953 693.998C46.8552 690.039 48.5048 686.079 51.1442 682.12C53.7837 678.161 56.753 673.872 60.0523 669.253C63.3516 664.634 66.321 660.345 68.9604 656.386C77.5385 642.529 85.7867 625.703 93.705 605.907C101.623 586.111 107.232 569.285 110.531 555.428C111.851 551.469 111.851 545.86 110.531 538.601C109.212 531.343 109.212 526.064 110.531 522.765C111.851 518.806 114.82 513.857 119.439 507.918C124.058 501.979 127.358 497.69 129.337 495.051C137.256 481.854 144.844 465.027 152.102 444.572C159.361 424.116 163.98 407.29 165.959 394.093C166.619 390.794 166.289 385.185 164.97 377.266C163.65 369.348 163.65 364.069 164.97 361.43C166.289 356.811 170.248 351.202 176.847 344.604C183.446 338.005 187.735 333.716 189.714 331.736C196.313 322.498 203.901 306.992 212.479 285.216C221.057 263.441 226.336 245.625 228.316 231.768C228.316 229.129 227.656 224.51 226.336 217.911C225.017 211.312 224.687 206.364 225.346 203.064C226.006 200.425 227.656 197.126 230.295 193.166C232.935 189.207 236.234 184.918 240.193 180.299C244.152 175.68 247.452 172.051 250.091 169.412C252.731 164.793 255.7 159.184 258.999 152.585C262.298 145.987 264.938 139.388 266.917 132.79C268.897 126.191 271.866 119.592 275.826 112.994C279.785 106.395 283.414 100.457 286.713 95.1777C290.012 89.8988 294.961 85.6098 301.56 82.3105C308.158 79.0112 314.757 77.0316 321.356 76.3718C327.954 75.7119 336.532 76.7017 347.09 79.3411V80.3309C360.947 77.0316 370.185 75.382 374.804 75.382H795.463C822.517 75.382 843.632 85.9397 858.809 107.055C873.986 128.171 877.285 151.925 868.707 178.32L717.27 679.151C704.073 722.701 690.875 750.745 677.678 763.283C664.481 775.82 640.726 782.419 606.414 783.078H126.368C116.47 783.078 109.542 785.718 105.582 790.997C101.623 796.935 101.293 804.854 104.593 814.752C113.831 840.486 140.555 853.353 184.765 853.353H694.505C705.062 853.353 715.29 850.384 725.188 844.445C735.086 838.506 741.684 830.918 744.984 821.68L910.278 277.298C912.917 268.72 913.907 258.162 913.247 245.625C927.104 250.904 937.992 258.822 945.91 269.38ZM357.978 270.37C356.658 274.989 356.988 278.948 358.967 282.247C360.947 285.546 364.576 287.526 369.855 288.186H705.392C710.671 288.186 715.62 286.206 720.239 282.247C724.858 278.288 727.827 274.329 729.147 270.37L741.025 234.737C742.344 230.118 742.014 226.159 740.035 222.86C738.055 219.561 734.096 217.581 728.157 216.921H392.62C388.001 216.921 383.382 218.901 378.763 222.86C374.144 226.819 371.175 230.778 369.855 234.737L357.978 270.37ZM312.448 411.909C310.468 416.528 310.798 420.487 313.437 423.786C316.077 427.086 319.706 429.065 324.325 429.725H659.862C664.481 429.725 669.1 427.746 673.719 423.786C678.338 419.827 681.637 415.868 683.617 411.909L694.505 376.277C696.484 371.658 696.154 367.369 693.515 363.409C690.875 359.45 687.246 357.801 682.627 358.461H347.09C342.471 358.461 337.852 360.11 333.233 363.409C328.614 366.709 325.315 370.998 323.335 376.277L312.448 411.909Z"/>
</svg>
