<svg width="1000" height="1000" viewBox="0 0 1000 1000" xmlns="http://www.w3.org/2000/svg">
<path d="M847.545 243.68C857.038 253.173 865.048 265.633 871.575 281.06C878.102 296.487 881.365 311.32 881.365 325.56V896.94C881.365 910.587 876.915 921.86 868.015 930.76C859.115 939.66 847.842 944.407 834.195 945H166.695C153.048 945 141.775 940.253 132.875 930.76C123.975 921.267 119.228 909.993 118.635 896.94V103.06C118.635 89.4133 123.382 78.14 132.875 69.24C142.368 60.34 153.642 55.5933 166.695 55H611.695C624.748 55 639.285 58.2633 655.305 64.79C671.325 71.3167 683.785 79.3267 692.685 88.82L847.545 243.68ZM626.825 122.64V309.54H813.725C810.758 299.453 807.198 292.63 803.045 289.07L647.295 133.32C643.735 129.167 636.912 125.607 626.825 122.64ZM818.175 881.81V372.73H611.695C598.048 372.73 586.775 367.983 577.875 358.49C568.975 348.997 564.228 338.02 563.635 325.56V118.19H181.825V881.81H818.175ZM357.155 436.81C359.528 432.657 363.088 430.58 367.835 430.58C372.582 430.58 376.438 431.47 379.405 433.25L404.325 451.94C408.478 454.907 410.555 458.467 410.555 462.62C410.555 466.773 409.665 470.63 407.885 474.19L317.105 595.23L407.885 716.27C410.258 719.83 411.148 723.687 410.555 727.84C409.962 731.993 407.885 735.553 404.325 738.52L379.405 757.21C375.845 759.583 371.988 760.77 367.835 760.77C363.682 760.77 360.122 758.693 357.155 754.54L245.015 605.02C240.268 598.493 240.268 591.967 245.015 585.44L357.155 436.81ZM754.985 585.44C759.732 591.967 759.732 598.493 754.985 605.02L642.845 754.54C640.472 758.1 637.208 760.177 633.055 760.77C628.902 761.363 624.748 760.177 620.595 757.21L595.675 738.52C592.115 735.553 590.038 731.993 589.445 727.84C588.852 723.687 589.742 719.83 592.115 716.27L682.895 595.23L592.115 474.19C589.742 470.63 588.852 466.773 589.445 462.62C590.038 458.467 592.115 454.907 595.675 451.94L620.595 433.25C624.155 430.877 628.308 429.987 633.055 430.58C637.802 431.173 641.065 433.25 642.845 436.81L754.985 585.44ZM447.045 815.06C442.892 814.467 439.628 812.093 437.255 807.94C434.882 803.787 433.992 799.93 434.585 796.37L503.115 383.41C503.708 379.257 505.785 375.993 509.345 373.62C512.905 371.247 517.058 370.357 521.805 370.95L552.955 375.4C557.108 376.587 560.372 378.96 562.745 382.52C565.118 386.08 566.008 389.937 565.415 394.09L496.885 807.05C496.292 811.203 494.215 814.467 490.655 816.84C487.095 819.213 483.238 820.103 479.085 819.51L447.045 815.06Z"/>
</svg>
