<svg xmlns="http://www.w3.org/2000/svg" width="900" height="1000" fill="none"><path fill="#000" d="M496.425 646.258v-68.833q0-5.065-3.442-8.507-3.441-3.441-8.117-3.441h-69.612q-4.675 0-8.117 3.441-3.441 3.442-3.441 8.507v68.833q0 5.064 3.441 8.506 3.442 3.442 8.117 3.442h69.612q4.676 0 8.117-3.442t3.442-8.506m-.714-135.523 6.558-166.302q0-4.35-3.636-6.883-4.741-4.026-8.702-4.026h-79.742q-3.96 0-8.701 4.026-3.637 2.532-3.637 7.598l6.169 165.587q0 3.637 3.637 5.975t8.701 2.337h67.015q5.13 0 8.571-2.337 3.442-2.338 3.767-5.975m-5.065-338.448 278.317 510.205q12.663 22.858-.714 45.65-6.17 10.52-16.884 16.689T728.378 751H171.743q-12.273 0-22.988-6.169t-16.883-16.689q-13.377-22.792-.714-45.65l278.317-510.205q6.17-11.233 17.013-17.793 10.845-6.558 23.572-6.493 12.728.064 23.572 6.493 10.845 6.429 17.014 17.793"/></svg>