<svg width="1000" height="1000" viewBox="0 0 1000 1000" xmlns="http://www.w3.org/2000/svg">
<path d="M324.35 500C272.811 501.718 230.435 522.047 197.22 560.988H132.797C107.027 560.988 84.9796 554.689 66.6546 542.09C48.3296 529.492 39.4534 510.594 40.026 485.397C40.026 372.584 59.7827 316.177 99.2961 316.177C101.587 316.177 108.745 319.327 120.771 325.626C132.797 331.925 148.258 338.797 167.156 346.242C186.054 353.686 204.951 357.122 223.849 356.549C245.61 356.549 267.085 352.827 288.273 345.383C286.555 357.408 285.696 368.003 285.696 377.165C285.696 421.832 298.581 462.777 324.35 500ZM838.024 805.799C838.024 843.595 826.284 873.659 802.806 895.993C779.327 918.326 748.403 929.493 710.035 929.493H290.85C251.909 929.493 220.986 918.326 198.079 895.993C175.173 873.659 163.434 843.595 162.861 805.799C162.861 788.619 163.434 772.012 164.579 755.978C165.724 739.944 168.015 722.478 171.451 703.58C174.887 684.682 178.895 667.216 183.477 651.182C188.058 635.147 194.93 619.686 204.092 604.796C213.255 589.907 223.276 577.023 234.157 566.142C245.037 555.262 258.781 546.672 275.388 540.372C291.995 534.073 309.748 530.924 328.645 530.924C332.081 530.924 338.953 534.36 349.261 541.231C359.569 548.103 371.308 555.548 384.479 563.565C397.651 571.582 414.544 579.313 435.16 586.758C455.775 594.202 477.536 597.638 500.442 597.066C523.349 596.493 544.823 593.057 564.866 586.758C584.909 580.459 602.089 572.728 616.406 563.565C630.722 554.403 642.461 546.958 651.624 541.231C660.787 535.505 667.658 532.069 672.24 530.924C691.71 530.924 709.462 534.073 725.497 540.372C741.531 546.672 754.989 555.262 765.869 566.142C776.75 577.023 786.771 589.907 795.934 604.796C805.096 619.686 811.968 635.147 816.549 651.182C821.131 667.216 825.426 684.682 829.434 703.58C833.443 722.478 835.733 739.944 836.306 755.978C836.879 772.012 837.451 788.619 838.024 805.799ZM346.684 193.342C346.684 227.129 334.658 256.048 310.607 280.1C286.555 304.151 257.636 316.177 223.849 316.177C190.062 316.177 161.143 304.151 137.091 280.1C113.04 256.048 101.014 227.129 101.014 193.342C101.014 159.555 113.04 130.636 137.091 106.585C161.143 82.5329 190.062 70.5071 223.849 70.5071C257.636 70.5071 286.555 82.5329 310.607 106.585C334.658 130.636 346.684 159.555 346.684 193.342ZM684.265 377.165C684.265 428.132 666.227 471.654 630.149 507.731C594.072 543.808 550.836 561.561 500.442 560.988C450.049 560.416 406.527 542.663 369.877 507.731C333.227 472.799 315.188 429.277 315.761 377.165C316.333 325.053 334.372 281.818 369.877 247.458C405.381 213.099 448.903 195.06 500.442 193.342C551.982 191.624 595.217 209.663 630.149 247.458C665.081 285.254 683.12 328.489 684.265 377.165ZM960 485.397C960 510.022 951.124 528.919 933.371 542.09C915.619 555.262 893.572 561.561 867.229 560.988H802.806C770.164 522.047 728.074 501.718 676.535 500C702.304 462.777 715.189 421.832 715.189 377.165C715.189 368.003 714.33 357.408 712.612 345.383C733.8 352.827 754.989 356.549 776.177 356.549C795.075 356.549 814.259 353.114 833.729 346.242C853.199 339.37 868.661 332.498 880.114 325.626C891.567 318.754 898.439 315.604 900.73 316.177C940.243 316.177 960 372.584 960 485.397ZM899.012 193.342C899.012 227.129 886.986 256.048 862.935 280.1C838.883 304.151 809.964 316.177 776.177 316.177C742.39 316.177 713.471 304.151 689.419 280.1C665.368 256.048 653.342 227.129 653.342 193.342C653.342 159.555 665.368 130.636 689.419 106.585C713.471 82.5329 742.39 70.5071 776.177 70.5071C809.964 70.5071 838.883 82.5329 862.935 106.585C886.986 130.636 899.012 159.555 899.012 193.342Z"/>
</svg>
