<svg width="900" height="900" viewBox="0 0 900 900" xmlns="http://www.w3.org/2000/svg">
<path d="M496.425 596.258V527.425C496.425 524.048 495.278 521.213 492.983 518.918C490.689 516.624 487.983 515.477 484.866 515.477H415.254C412.137 515.477 409.432 516.624 407.137 518.918C404.843 521.213 403.696 524.048 403.696 527.425V596.258C403.696 599.634 404.843 602.47 407.137 604.764C409.432 607.059 412.137 608.206 415.254 608.206H484.866C487.983 608.206 490.689 607.059 492.983 604.764C495.278 602.47 496.425 599.634 496.425 596.258ZM495.711 460.735L502.269 294.433C502.269 291.533 501.057 289.238 498.633 287.55C495.472 284.866 492.572 283.524 489.931 283.524H410.189C407.549 283.524 404.648 284.866 401.488 287.55C399.064 289.238 397.851 291.771 397.851 295.148L404.02 460.735C404.02 463.16 405.233 465.151 407.657 466.71C410.081 468.268 412.982 469.047 416.358 469.047H483.373C486.793 469.047 489.65 468.268 491.944 466.71C494.239 465.151 495.494 463.16 495.711 460.735ZM490.646 122.287L768.963 632.492C777.405 647.731 777.167 662.947 768.249 678.142C764.136 685.156 758.508 690.718 751.365 694.831C744.222 698.944 736.56 701 728.378 701H171.743C163.561 701 155.898 698.944 148.755 694.831C141.612 690.718 135.985 685.156 131.872 678.142C122.954 662.947 122.716 647.731 131.158 632.492L409.475 122.287C413.588 114.798 419.259 108.867 426.488 104.494C433.718 100.122 441.575 97.9573 450.06 98.0006C458.545 98.0439 466.403 100.208 473.632 104.494C480.862 108.78 486.533 114.711 490.646 122.287Z"/>
</svg>
