<svg width="1000" height="1000" viewBox="0 0 1000 1000" xmlns="http://www.w3.org/2000/svg">
<path d="M839.065 499.864L916.065 574.864C927.399 585.53 931.065 598.53 927.065 613.864C922.399 629.197 912.732 638.864 898.065 642.864L793.065 669.864L823.065 772.864C827.065 788.197 823.399 801.197 812.065 811.864C801.399 823.864 788.399 827.53 773.065 822.864L669.065 792.864L642.065 897.864C638.732 913.197 629.399 923.197 614.065 927.864C609.399 928.53 605.732 928.864 603.065 928.864C591.732 928.864 582.399 924.53 575.065 915.864L500.065 838.864L424.065 915.864C414.065 927.197 401.065 931.197 385.065 927.864C369.732 923.197 360.399 913.197 357.065 897.864L330.065 792.864L226.065 822.864C210.732 827.53 197.732 823.864 187.065 811.864C175.732 801.197 172.399 788.197 177.065 772.864L206.065 669.864L101.065 642.864C86.3986 638.864 76.7319 629.197 72.0652 613.864C68.0652 598.53 71.7319 585.53 83.0652 574.864L160.065 499.864L83.0652 424.864C71.7319 414.197 68.0652 401.197 72.0652 385.864C76.7319 370.53 86.3986 360.864 101.065 356.864L206.065 329.864L177.065 226.864C172.399 211.53 175.732 198.197 187.065 186.864C197.732 175.53 210.732 172.197 226.065 176.864L330.065 205.864L357.065 101.864C360.399 86.5303 369.732 76.8636 385.065 72.8636C400.399 68.197 413.399 71.8636 424.065 83.8636L500.065 160.864L575.065 83.8636C585.732 72.5303 598.732 68.8636 614.065 72.8636C629.399 76.8636 638.732 86.5303 642.065 101.864L669.065 205.864L773.065 176.864C788.399 172.197 801.399 175.53 812.065 186.864C823.399 198.197 827.065 211.53 823.065 226.864L793.065 329.864L898.065 356.864C912.732 360.864 922.399 370.53 927.065 385.864C931.065 401.197 927.399 414.197 916.065 424.864L839.065 499.864Z"/>
</svg>
