<svg width="1000" height="1000" viewBox="0 0 1000 1000" xmlns="http://www.w3.org/2000/svg">
<path d="M625.5 320.941C625.5 326.274 623.5 330.608 619.5 333.941C615.5 337.274 611.5 338.941 607.5 338.941C603.5 338.941 599.167 337.274 594.5 333.941C589.833 330.608 588.167 326.274 589.5 320.941C589.5 304.274 579.5 291.274 559.5 281.941C539.5 272.608 519.833 267.941 500.5 267.941C495.833 267.941 491.5 266.274 487.5 262.941C483.5 259.608 481.833 255.274 482.5 249.941C483.167 244.608 484.833 240.274 487.5 236.941C490.167 233.608 494.5 231.941 500.5 231.941C519.167 231.941 537.5 234.941 555.5 240.941C573.5 246.941 589.833 256.941 604.5 270.941C619.167 284.941 626.167 301.608 625.5 320.941ZM714.5 320.941C714.5 294.274 708.167 269.608 695.5 246.941C682.833 224.274 666.167 205.274 645.5 189.941C624.833 174.608 601.833 162.941 576.5 154.941C551.167 146.941 525.833 142.941 500.5 142.941C475.167 142.941 449.833 146.941 424.5 154.941C399.167 162.941 376.167 174.608 355.5 189.941C334.833 205.274 318.167 224.274 305.5 246.941C292.833 269.608 286.167 294.274 285.5 320.941C285.5 358.941 298.167 392.608 323.5 421.941C327.5 425.941 333.167 431.941 340.5 439.941C347.833 447.941 353.5 454.274 357.5 458.941C405.5 515.608 431.833 570.941 436.5 624.941H563.5C568.833 570.941 595.167 515.608 642.5 458.941C646.5 454.941 652.167 448.608 659.5 439.941C666.833 431.274 672.5 425.274 676.5 421.941C701.833 392.608 714.5 358.941 714.5 320.941ZM785.5 320.941C785.5 378.941 766.5 428.941 728.5 470.941C711.833 488.941 697.833 504.941 686.5 518.941C675.167 532.941 664.167 550.941 653.5 572.941C642.833 594.941 636.5 614.941 634.5 632.941C651.833 642.941 660.5 658.275 660.5 678.941C660.5 692.275 656.167 703.941 647.5 713.941C656.167 723.941 660.5 735.941 660.5 749.941C660.5 769.275 652.167 784.275 635.5 794.941C640.833 803.608 643.5 812.275 643.5 820.941C643.5 838.275 637.5 851.608 625.5 860.941C613.5 870.275 599.167 874.941 582.5 874.941C575.167 891.608 563.833 904.608 548.5 913.941C533.167 923.275 517.167 928.275 500.5 928.941C483.833 929.608 467.5 924.608 451.5 913.941C435.5 903.275 424.5 890.275 418.5 874.941C401.167 874.941 386.5 870.275 374.5 860.941C362.5 851.608 356.833 838.275 357.5 820.941C357.5 812.275 359.833 803.608 364.5 794.941C347.833 784.275 339.5 769.275 339.5 749.941C339.5 735.941 344.167 723.941 353.5 713.941C344.167 703.941 339.5 692.275 339.5 678.941C339.5 658.275 348.167 642.941 365.5 632.941C364.167 614.274 357.833 594.274 346.5 572.941C335.167 551.608 324.167 533.608 313.5 518.941C302.833 504.274 289.167 488.274 272.5 470.941C233.833 428.941 214.5 378.941 214.5 320.941C214.5 284.274 222.833 249.941 239.5 217.941C256.167 185.941 277.833 159.608 304.5 138.941C331.167 118.274 361.833 101.941 396.5 89.9412C431.167 77.9412 465.833 71.6078 500.5 70.9412C535.167 70.2745 569.833 76.6078 604.5 89.9412C639.167 103.274 669.5 119.608 695.5 138.941C721.5 158.274 743.5 184.608 761.5 217.941C779.5 251.274 787.5 285.608 785.5 320.941Z"/>
</svg>
