<svg width="1000" height="1000" viewBox="0 0 1000 1000" xmlns="http://www.w3.org/2000/svg">
<path d="M712.141 374C712.141 383.333 708.807 391.667 702.141 399L601.141 500L702.141 601C708.807 608.333 712.141 616.667 712.141 626C712.141 636 708.807 644.667 702.141 652L651.141 702C644.474 709.333 636.141 713 626.141 713C616.141 713 607.807 709.333 601.141 702L500.141 601L399.141 702C391.807 709.333 383.474 713 374.141 713C363.474 713 354.807 709.333 348.141 702L298.141 652C290.807 644.667 287.141 636 287.141 626C287.141 616.667 290.807 608.333 298.141 601L399.141 500L298.141 399C290.807 391.667 287.141 383.333 287.141 374C287.141 364 290.807 355.333 298.141 348L348.141 298C354.807 290.667 363.474 287 374.141 287C383.474 287 391.807 290.667 399.141 298L500.141 399L601.141 298C607.807 290.667 616.141 287 626.141 287C636.141 287 644.474 290.667 651.141 298L702.141 348C708.807 355.333 712.141 364 712.141 374ZM928.141 500C928.141 422 909.141 350.333 871.141 285C833.141 219.667 781.141 167.667 715.141 129C649.141 90.3333 577.474 71 500.141 71C422.807 71 350.807 90.3333 284.141 129C217.474 167.667 165.807 219.667 129.141 285C92.474 350.333 73.1406 422 71.1406 500C69.1406 578 88.474 649.667 129.141 715C169.807 780.333 221.474 832.333 284.141 871C346.807 909.667 418.807 929 500.141 929C581.474 929 653.141 909.667 715.141 871C777.141 832.333 829.141 780.333 871.141 715C913.141 649.667 932.141 578 928.141 500Z"/>
</svg>
