<?xml version="1.0" encoding="UTF-8"?>
<svg width="900" height="1e3" viewBox="0 0 640 704" xmlns="http://www.w3.org/2000/svg">
 <!--! Font Awesome Free 7.2.0 by @fontawesome - https://fontawesome.com License - https://fontawesome.com/license/free (Icons: CC BY 4.0, Fonts: SIL OFL 1.1, Code: MIT License) Copyright 2026 Fonticons, Inc. -->
 <path d="m320 64c14.7 0 28.2 8.1 35.2 21l216 400c6.7 12.4 6.4 27.4-0.8 39.5s-20.3 19.5-34.4 19.5h-432c-14.1 0-27.2-7.4-34.4-19.5s-7.5-27.1-0.8-39.5l216-400c7-12.9 20.5-21 35.2-21zm0 352c-17.7 0-32 14.3-32 32s14.3 32 32 32 32-14.3 32-32-14.3-32-32-32zm0-192c-18.2 0-32.7 15.5-31.4 33.7l7.4 104c0.9 12.5 11.4 22.3 23.9 22.3 12.6 0 23-9.7 23.9-22.3l7.4-104c1.3-18.2-13.1-33.7-31.4-33.7z"/>
</svg>
