<svg width="1000" height="1000" viewBox="0 0 1000 1000" xmlns="http://www.w3.org/2000/svg">
<path d="M642.641 500C642.641 539.333 628.974 573 601.641 601C574.307 629 540.641 643 500.641 643C460.641 643 426.974 629 399.641 601C372.307 573 358.307 539.333 357.641 500C356.974 460.667 370.974 427 399.641 399C428.307 371 461.974 357 500.641 357C539.307 357 572.974 371 601.641 399C630.307 427 643.974 460.667 642.641 500ZM500.641 196C445.307 196 394.307 209.667 347.641 237C300.974 264.333 264.307 301.333 237.641 348C210.974 394.667 197.307 445.333 196.641 500C195.974 554.667 209.641 605.333 237.641 652C265.641 698.667 302.307 735.667 347.641 763C392.974 790.333 443.974 804 500.641 804C557.307 804 607.974 790.333 652.641 763C697.307 735.667 733.974 698.667 762.641 652C791.307 605.333 804.974 554.667 803.641 500C802.307 445.333 788.641 394.667 762.641 348C736.641 301.333 699.974 264.333 652.641 237C605.307 209.667 554.641 196 500.641 196ZM928.641 500C928.641 578 909.641 649.667 871.641 715C833.641 780.333 781.641 832.333 715.641 871C649.641 909.667 577.974 929 500.641 929C423.307 929 351.307 909.667 284.641 871C217.974 832.333 166.307 780.333 129.641 715C92.974 649.667 73.6406 578 71.6406 500C69.6406 422 88.974 350.333 129.641 285C170.307 219.667 221.974 167.667 284.641 129C347.307 90.3333 419.307 71 500.641 71C581.974 71 653.641 90.3333 715.641 129C777.641 167.667 829.641 219.667 871.641 285C913.641 350.333 932.641 422 928.641 500Z"/>
</svg>
