<svg width="990" height="1000" viewBox="0 0 990 1000" xmlns="http://www.w3.org/2000/svg">
<path d="M64.5436 247.553C64.5436 194.306 83.2235 148.983 120.583 111.583C157.943 74.1838 203.534 55.1671 257.358 54.5332H325.745C346.641 54.5332 364.688 62.1399 379.885 77.3533C395.082 92.5667 402.364 110.633 401.731 131.551C401.098 152.469 393.816 170.535 379.885 185.749C365.954 200.962 347.908 208.252 325.745 207.618H257.358C245.96 207.618 236.462 211.738 228.863 219.979C221.264 228.219 217.465 237.411 217.465 247.553V753.398C217.465 764.175 221.264 773.366 228.863 780.973C236.462 788.579 245.96 792.7 257.358 793.334H325.745C346.641 793.334 364.688 800.623 379.885 815.203C395.082 829.782 402.364 847.848 401.731 869.4C401.098 890.953 393.816 909.019 379.885 923.598C365.954 938.178 347.908 945.467 325.745 945.467H257.358C204.168 945.467 158.576 926.768 120.583 889.368C82.5903 851.968 63.9104 806.645 64.5436 753.398V247.553ZM290.602 487.164C290.602 508.082 298.2 526.148 313.397 541.362C328.595 556.575 346.641 563.865 367.537 563.231H694.276L589.796 668.774C574.599 683.353 567 701.419 567 722.972C567 744.524 574.599 762.59 589.796 777.169C604.36 791.749 622.407 799.039 643.936 799.039C665.465 799.039 683.195 791.749 697.126 777.169L932.682 541.362C947.246 526.148 954.528 508.082 954.528 487.164C954.528 466.246 947.246 448.18 932.682 432.966L701.875 202.864C687.311 188.284 669.264 180.995 647.735 180.995C626.206 180.995 608.159 188.284 593.595 202.864C579.031 217.443 571.749 235.509 571.749 257.061C571.749 278.614 579.348 296.68 594.545 311.259L694.276 411.097H367.537C346.641 411.097 328.595 418.387 313.397 432.966C298.2 447.546 290.602 465.612 290.602 487.164Z"/>
</svg>
