<svg width="1000" height="1000" viewBox="0 0 1000 1000" xmlns="http://www.w3.org/2000/svg">
<path d="M791.844 292.111C814.232 292.111 833.689 284.115 850.213 268.124C866.738 252.132 875 232.143 875 208.156C875 185.768 867.004 166.311 851.013 149.787C835.021 133.262 815.298 125 791.844 125H208.156C184.701 125 164.979 133.262 148.987 149.787C132.996 166.311 125 185.768 125 208.156C125 231.61 133.262 251.599 149.787 268.124C166.311 284.648 185.768 292.644 208.156 292.111H791.844ZM791.844 583.156C815.298 583.156 835.021 574.893 851.013 558.369C867.004 541.844 875 522.388 875 500C875 477.612 867.004 458.156 851.013 441.631C835.021 425.107 815.298 417.111 791.844 417.644H208.156C184.701 417.644 164.979 425.64 148.987 441.631C132.996 457.623 125 477.079 125 500C125 522.921 132.996 542.377 148.987 558.369C164.979 574.36 184.701 582.623 208.156 583.156H791.844ZM791.844 875C815.298 875 835.021 866.738 851.013 850.213C867.004 833.689 875 814.232 875 791.844C875 768.923 866.738 749.2 850.213 732.676C833.689 716.151 814.232 707.889 791.844 707.889H208.156C185.235 707.889 165.778 716.151 149.787 732.676C133.795 749.2 125.533 768.923 125 791.844C125 814.765 132.996 834.222 148.987 850.213C164.979 866.205 184.701 874.467 208.156 875H791.844Z" fill-opacity="0.2"/>
</svg>
