<svg width="1000" height="1000" viewBox="0 0 1000 1000" xmlns="http://www.w3.org/2000/svg">
<path d="M865 240C893 240 917.333 230 938 210C958.667 190 969 165 969 135C969 107 959 82.6667 939 62C919 41.3333 894.333 31 865 31H135C105.667 31 81 41.3333 61 62C41 82.6667 31 107 31 135C31 164.333 41.3333 189.333 62 210C82.6667 230.667 107 240.667 135 240H865ZM865 604C894.333 604 919 593.667 939 573C959 552.333 969 528 969 500C969 472 959 447.667 939 427C919 406.333 894.333 396.333 865 397H135C105.667 397 81 407 61 427C41 447 31 471.333 31 500C31 528.667 41 553 61 573C81 593 105.667 603.333 135 604H865ZM865 969C894.333 969 919 958.667 939 938C959 917.333 969 893 969 865C969 836.333 958.667 811.667 938 791C917.333 770.333 893 760 865 760H135C106.333 760 82 770.333 62 791C42 811.667 31.6667 836.333 31 865C31 893.667 41 918 61 938C81 958 105.667 968.333 135 969H865Z" fill-opacity="0.2"/>
</svg>
